<svg xmlns="http://www.w3.org/2000/svg" viewBox="0 0 88.98 30"><defs><style>.cls-1,.cls-2{fill:#fff;}.cls-2{fill-rule:evenodd;}</style></defs><title>Asset 1</title><g id="Layer_2" data-name="Layer 2"><g id="ui"><polygon class="cls-1" points="6.47 13.7 0 15.34 16.47 28.39 6.47 13.7"/><polygon class="cls-1" points="10.47 7.68 3.03 7.28 16.97 27.76 10.47 7.68"/><polygon class="cls-1" points="18.5 30 8.79 0 32.65 8.41 18.5 30"/><rect class="cls-1" x="47.4" y="17.65" width="1.78" height="5.29"/><rect class="cls-1" x="44.98" y="15.13" width="6.62" height="1.77"/><rect class="cls-1" x="74.28" y="15.14" width="6.73" height="1.76"/><rect class="cls-1" x="74.28" y="18.16" width="6.73" height="1.76"/><rect class="cls-1" x="74.28" y="21.18" width="6.73" height="1.76"/><polygon class="cls-1" points="87.01 15.13 83.99 19.87 83.99 15.13 82.21 15.13 82.21 22.94 82.25 22.94 82.25 22.94 84.12 22.94 88.98 15.13 87.01 15.13"/><path class="cls-1" d="M43,15.13H41l-2.45,7.81h1.88l.43-1.77h2.31l.43,1.77h1.88Zm-1.72,4.43L42,16.78l.71,2.78Z"/><path class="cls-1" d="M51.11,22.94H53l.42-1.76h2.31l.43,1.76H58l-2.45-7.81h-2Zm2.76-3.38.71-2.78.71,2.78Z"/><path class="cls-2" d="M34.47,15.13H30.38V16.9h4.08A2.18,2.18,0,0,1,36.84,19a2.21,2.21,0,0,1-2.4,2.15h-.78V17.65H31.87v5.29h2.57a3.91,3.91,0,1,0,0-7.81Z"/><path class="cls-1" d="M62.9,15.13H59v7.81h1.78v-6h2A1.1,1.1,0,0,1,64,18a1.08,1.08,0,0,1-1.09,1.08H61.58v1.77H62.9a2.85,2.85,0,1,0,0-5.7Z"/><path class="cls-1" d="M73.27,18a2.85,2.85,0,0,0-2.85-2.85H66.56v7.81h1.78v-6H70.4A1.1,1.1,0,0,1,71.51,18a1.08,1.08,0,0,1-1.09,1.08H69.1v1.77h0l1.62,2.11h2.19L71,20.76A2.85,2.85,0,0,0,73.27,18Z"/></g></g></svg>